<svg width="107" height="40" viewBox="0 0 107 40" fill="none" xmlns="http://www.w3.org/2000/svg">
<g filter="url(#filter0_d_1_20130)">
<path d="M2 19C2 9.05888 10.0589 1 20 1H87C96.9411 1 105 9.05888 105 19C105 28.9411 96.9411 37 87 37H20C10.0589 37 2 28.9411 2 19Z" fill="#F9FAFB"/>
<path d="M20 1.5H87C96.665 1.5 104.5 9.33502 104.5 19C104.5 28.665 96.665 36.5 87 36.5H20C10.335 36.5 2.5 28.665 2.5 19C2.5 9.33502 10.335 1.5 20 1.5Z" stroke="url(#paint0_linear_1_20130)"/>
<g clip-path="url(#clip0_1_20130)">
<path d="M24 29C29.5228 29 34 24.5228 34 19C34 13.4772 29.5228 9 24 9C18.4772 9 14 13.4772 14 19C14 24.5228 18.4772 29 24 29Z" fill="#F0F0F0"/>
<path d="M16.0672 12.9108C15.2817 13.9328 14.6894 15.1107 14.3445 16.3904H19.5467L16.0672 12.9108Z" fill="#0052B4"/>
<path d="M33.6558 16.3905C33.3109 15.1109 32.7186 13.933 31.9331 12.911L28.4536 16.3905H33.6558Z" fill="#0052B4"/>
<path d="M14.3445 21.6085C14.6894 22.8881 15.2817 24.0661 16.0672 25.088L19.5466 21.6085H14.3445Z" fill="#0052B4"/>
<path d="M30.0879 11.0665C29.0659 10.281 27.888 9.68866 26.6084 9.34374V14.546L30.0879 11.0665Z" fill="#0052B4"/>
<path d="M17.9116 26.9314C18.9336 27.7169 20.1115 28.3092 21.3912 28.6541V23.452L17.9116 26.9314Z" fill="#0052B4"/>
<path d="M21.3911 9.34374C20.1115 9.68866 18.9336 10.281 17.9116 11.0664L21.3911 14.5459V9.34374Z" fill="#0052B4"/>
<path d="M26.6084 28.6541C27.888 28.3092 29.0659 27.7169 30.0879 26.9314L26.6084 23.452V28.6541Z" fill="#0052B4"/>
<path d="M28.4536 21.6085L31.9331 25.088C32.7186 24.0661 33.3109 22.8881 33.6558 21.6085H28.4536Z" fill="#0052B4"/>
<path d="M33.9154 17.6957H25.3044H25.3044V9.08465C24.8774 9.02906 24.4421 9 24 9C23.5579 9 23.1226 9.02906 22.6957 9.08465V17.6956V17.6956H14.0846C14.0291 18.1226 14 18.5579 14 19C14 19.4421 14.0291 19.8774 14.0846 20.3043H22.6956H22.6956V28.9154C23.1226 28.9709 23.5579 29 24 29C24.4421 29 24.8774 28.971 25.3043 28.9154V20.3044V20.3044H33.9154C33.9709 19.8774 34 19.4421 34 19C34 18.5579 33.9709 18.1226 33.9154 17.6957Z" fill="#D80027"/>
<path d="M26.6086 21.6094L31.071 26.0717C31.2762 25.8666 31.472 25.6521 31.6588 25.4297L27.8384 21.6093H26.6086V21.6094Z" fill="#D80027"/>
<path d="M21.3912 21.6093H21.3911L16.9288 26.0716C17.134 26.2769 17.3485 26.4727 17.5708 26.6595L21.3912 22.839V21.6093Z" fill="#D80027"/>
<path d="M21.3911 16.3909V16.3909L16.9288 11.9285C16.7235 12.1336 16.5277 12.3481 16.3409 12.5705L20.1614 16.3909H21.3911V16.3909Z" fill="#D80027"/>
<path d="M26.6086 16.3918L31.071 11.9294C30.8659 11.7242 30.6514 11.5284 30.429 11.3416L26.6086 15.1621V16.3918Z" fill="#D80027"/>
</g>
<path d="M45.222 14.046C47.028 14.046 47.868 14.76 48.148 15.068L47.028 16.314C46.636 15.922 46.076 15.572 45.138 15.572C43.794 15.572 42.52 16.314 42.52 18.974C42.52 21.592 43.402 22.684 45.152 22.684C45.572 22.684 46.104 22.614 46.384 22.46V18.974H48.134V23.272C47.448 23.762 46.496 24.14 44.788 24.14C42.1 24.14 40.728 22.46 40.728 19.156C40.728 15.614 42.716 14.046 45.222 14.046ZM55.2235 18.904C56.1895 19.016 57.0995 19.688 57.0995 21.074C57.0995 22.474 56.3295 24 53.4175 24H50.2675V14.186H53.5995C55.2515 14.186 56.6095 14.788 56.6095 16.72C56.6095 17.854 55.9795 18.596 55.2235 18.848V18.904ZM54.9155 16.944C54.9155 16.118 54.4255 15.656 53.3615 15.656H52.0035V18.288H53.3195C54.4395 18.288 54.9155 17.756 54.9155 16.944ZM53.6695 22.53C54.8735 22.53 55.3215 21.956 55.3215 21.144C55.3215 20.094 54.5095 19.758 53.5715 19.758H52.0035V22.53H53.6695ZM62.2505 14.186C64.2385 14.186 65.5965 14.97 65.5965 17.056C65.5965 18.946 64.5605 20.36 61.9285 20.36H60.8505V24H59.1005V14.186H62.2505ZM61.9425 15.684H60.8505V18.904H61.8585C63.3565 18.904 63.7765 18.246 63.7765 17.294C63.7765 16.16 63.1885 15.684 61.9425 15.684Z" fill="url(#paint1_linear_1_20130)"/>
<path d="M78 16.5L83 21.5L88 16.5" stroke="url(#paint2_linear_1_20130)" stroke-width="1.66667" stroke-linecap="round" stroke-linejoin="round"/>
</g>
<defs>
<filter id="filter0_d_1_20130" x="0" y="0" width="107" height="40" filterUnits="userSpaceOnUse" color-interpolation-filters="sRGB">
<feFlood flood-opacity="0" result="BackgroundImageFix"/>
<feColorMatrix in="SourceAlpha" type="matrix" values="0 0 0 0 0 0 0 0 0 0 0 0 0 0 0 0 0 0 127 0" result="hardAlpha"/>
<feOffset dy="1"/>
<feGaussianBlur stdDeviation="1"/>
<feComposite in2="hardAlpha" operator="out"/>
<feColorMatrix type="matrix" values="0 0 0 0 0.0627451 0 0 0 0 0.0941176 0 0 0 0 0.156863 0 0 0 0.05 0"/>
<feBlend mode="normal" in2="BackgroundImageFix" result="effect1_dropShadow_1_20130"/>
<feBlend mode="normal" in="SourceGraphic" in2="effect1_dropShadow_1_20130" result="shape"/>
</filter>
<linearGradient id="paint0_linear_1_20130" x1="105" y1="0.999996" x2="82.5747" y2="65.1618" gradientUnits="userSpaceOnUse">
<stop stop-color="#F3B33E"/>
<stop offset="1" stop-color="#EB693C"/>
</linearGradient>
<linearGradient id="paint1_linear_1_20130" x1="67" y1="9" x2="47.8682" y2="34.8282" gradientUnits="userSpaceOnUse">
<stop stop-color="#F3B33E"/>
<stop offset="1" stop-color="#EB693C"/>
</linearGradient>
<linearGradient id="paint2_linear_1_20130" x1="88" y1="16.5" x2="84" y2="24.5" gradientUnits="userSpaceOnUse">
<stop stop-color="#F3B33E"/>
<stop offset="1" stop-color="#EB693C"/>
</linearGradient>
<clipPath id="clip0_1_20130">
<rect width="20" height="20" fill="white" transform="translate(14 9)"/>
</clipPath>
</defs>
</svg>
