<svg width="19" height="18" viewBox="0 0 19 18" fill="none" xmlns="http://www.w3.org/2000/svg">
                  <rect x="0.650024" y="0.25" width="17.5" height="17.5" rx="6" fill="url(#paint0_radial_0_1)" />
                  <rect x="0.650024" y="0.25" width="17.5" height="17.5" rx="6" fill="url(#paint1_radial_0_1)" />
                  <rect x="0.650024" y="0.25" width="17.5" height="17.5" rx="6" fill="url(#paint2_radial_0_1)" />
                  <path
                    d="M13.775 5.5625C13.775 6.08027 13.3553 6.5 12.8375 6.5C12.3198 6.5 11.9 6.08027 11.9 5.5625C11.9 5.04473 12.3198 4.625 12.8375 4.625C13.3553 4.625 13.775 5.04473 13.775 5.5625Z"
                    fill="white" />
                  <path fill-rule="evenodd" clip-rule="evenodd"
                    d="M9.40002 12.125C11.1259 12.125 12.525 10.7259 12.525 9C12.525 7.27411 11.1259 5.875 9.40002 5.875C7.67413 5.875 6.27502 7.27411 6.27502 9C6.27502 10.7259 7.67413 12.125 9.40002 12.125ZM9.40002 10.875C10.4356 10.875 11.275 10.0355 11.275 9C11.275 7.96447 10.4356 7.125 9.40002 7.125C8.36449 7.125 7.52502 7.96447 7.52502 9C7.52502 10.0355 8.36449 10.875 9.40002 10.875Z"
                    fill="white" />
                  <path fill-rule="evenodd" clip-rule="evenodd"
                    d="M3.15002 8.75C3.15002 6.6498 3.15002 5.5997 3.55875 4.79754C3.91828 4.09193 4.49195 3.51825 5.19756 3.15873C5.99973 2.75 7.04983 2.75 9.15002 2.75H9.65002C11.7502 2.75 12.8003 2.75 13.6025 3.15873C14.3081 3.51825 14.8818 4.09193 15.2413 4.79754C15.65 5.5997 15.65 6.6498 15.65 8.75V9.25C15.65 11.3502 15.65 12.4003 15.2413 13.2025C14.8818 13.9081 14.3081 14.4817 13.6025 14.8413C12.8003 15.25 11.7502 15.25 9.65002 15.25H9.15002C7.04983 15.25 5.99973 15.25 5.19756 14.8413C4.49195 14.4817 3.91828 13.9081 3.55875 13.2025C3.15002 12.4003 3.15002 11.3502 3.15002 9.25V8.75ZM9.15002 4H9.65002C10.7207 4 11.4486 4.00097 12.0112 4.04694C12.5592 4.09171 12.8395 4.17287 13.035 4.27248C13.5054 4.51217 13.8879 4.89462 14.1275 5.36502C14.2272 5.56052 14.3083 5.84078 14.3531 6.3888C14.3991 6.95141 14.4 7.67928 14.4 8.75V9.25C14.4 10.3207 14.3991 11.0486 14.3531 11.6112C14.3083 12.1592 14.2272 12.4395 14.1275 12.635C13.8879 13.1054 13.5054 13.4878 13.035 13.7275C12.8395 13.8271 12.5592 13.9083 12.0112 13.9531C11.4486 13.999 10.7207 14 9.65002 14H9.15002C8.0793 14 7.35143 13.999 6.78882 13.9531C6.2408 13.9083 5.96055 13.8271 5.76505 13.7275C5.29464 13.4878 4.91219 13.1054 4.67251 12.635C4.5729 12.4395 4.49174 12.1592 4.44696 11.6112C4.401 11.0486 4.40002 10.3207 4.40002 9.25V8.75C4.40002 7.67928 4.401 6.95141 4.44696 6.3888C4.49174 5.84078 4.5729 5.56052 4.67251 5.36502C4.91219 4.89462 5.29464 4.51217 5.76505 4.27248C5.96055 4.17287 6.2408 4.09171 6.78882 4.04694C7.35143 4.00097 8.0793 4 9.15002 4Z"
                    fill="white" />
                  <defs>
                    <radialGradient id="paint0_radial_0_1" cx="0" cy="0" r="1" gradientUnits="userSpaceOnUse"
                      gradientTransform="translate(6.90002 13.375) rotate(-55.3758) scale(15.9498)">
                      <stop stop-color="#B13589" />
                      <stop offset="0.79309" stop-color="#C62F94" />
                      <stop offset="1" stop-color="#8A3AC8" />
                    </radialGradient>
                    <radialGradient id="paint1_radial_0_1" cx="0" cy="0" r="1" gradientUnits="userSpaceOnUse"
                      gradientTransform="translate(6.27502 18.375) rotate(-65.1363) scale(14.1214)">
                      <stop stop-color="#E0E8B7" />
                      <stop offset="0.444662" stop-color="#FB8A2E" />
                      <stop offset="0.71474" stop-color="#E2425C" />
                      <stop offset="1" stop-color="#E2425C" stop-opacity="0" />
                    </radialGradient>
                    <radialGradient id="paint2_radial_0_1" cx="0" cy="0" r="1" gradientUnits="userSpaceOnUse"
                      gradientTransform="translate(-0.287475 0.875) rotate(-8.1301) scale(24.3068 5.19897)">
                      <stop offset="0.156701" stop-color="#406ADC" />
                      <stop offset="0.467799" stop-color="#6A45BE" />
                      <stop offset="1" stop-color="#6A45BE" stop-opacity="0" />
                    </radialGradient>
                  </defs>
                </svg>