<svg width="19" height="18" viewBox="0 0 19 18" fill="none" xmlns="http://www.w3.org/2000/svg">
                  <rect x="0.650024" y="0.25" width="17.5" height="17.5" rx="8.75" fill="#1275B1" />
                  <path
                    d="M7.28662 5.05759C7.28662 5.64169 6.78035 6.11519 6.15582 6.11519C5.5313 6.11519 5.02502 5.64169 5.02502 5.05759C5.02502 4.4735 5.5313 4 6.15582 4C6.78035 4 7.28662 4.4735 7.28662 5.05759Z"
                    fill="white" />
                  <path d="M5.17966 6.89256H7.11265V12.75H5.17966V6.89256Z" fill="white" />
                  <path
                    d="M10.2248 6.89256H8.29178V12.75H10.2248C10.2248 12.75 10.2248 10.906 10.2248 9.75304C10.2248 9.06101 10.4611 8.36596 11.4039 8.36596C12.4694 8.36596 12.463 9.27158 12.458 9.97318C12.4515 10.8903 12.467 11.8262 12.467 12.75H14.4V9.65857C14.3837 7.68461 13.8693 6.77505 12.1771 6.77505C11.1721 6.77505 10.5492 7.23129 10.2248 7.64406V6.89256Z"
                    fill="white" />
                </svg>