<svg width="128" height="61" viewBox="0 0 128 61" fill="none" xmlns="http://www.w3.org/2000/svg">
<path d="M39.7684 56.3947C39.6441 54.9033 39.3985 53.3888 39.0314 51.8569C38.6643 50.325 38.1441 48.8711 37.4706 47.4982C36.7971 46.1253 35.9445 44.8651 34.9069 43.7234C33.8721 42.5817 32.6264 41.6568 31.1696 40.9573C29.8198 40.307 28.4527 39.885 27.0711 39.6914C26.6376 39.6307 26.2098 39.596 25.7878 39.5815C25.6115 39.5729 25.4352 39.5642 25.256 39.5642C20.0793 39.5642 15.8854 43.761 15.8854 48.9347C15.8854 51.1198 16.634 53.1257 17.8856 54.7183C17.9867 54.8542 18.0937 54.9871 18.2035 55.1201C19.0041 56.0739 20.0158 56.8456 21.2413 57.4353C21.7557 57.6838 22.3338 57.8833 22.9697 58.0364C23.1633 58.0827 23.3599 58.1174 23.5593 58.1492C24.1114 58.2503 24.6779 58.3052 25.256 58.3052C26.7618 58.3052 28.1839 57.9468 29.4441 57.3167C29.525 57.2792 29.6031 57.2358 29.684 57.1925C29.7013 57.1838 29.7158 57.1751 29.7331 57.1665C29.8112 57.126 29.8921 57.0855 29.9701 57.0422C31.1754 56.36 32.161 55.4467 32.9183 54.3223C33.0108 54.1894 33.1033 54.0535 33.19 53.9177C33.586 55.5132 33.7912 57.2185 33.8056 59.0249L33.8172 60.4586H39.8812L39.8754 59.8603C39.8754 59.8603 39.8811 59.8603 39.8869 59.8603C39.9072 58.7446 39.8725 57.5884 39.7713 56.3861L39.7684 56.3947Z" fill="url(#paint0_linear_1_19751)"/>
<path d="M111.398 10.5594C109.612 7.47829 107.12 5.01282 103.99 3.22658C100.866 1.44324 97.2527 0.541443 93.2524 0.541443C89.2522 0.541443 85.7288 1.43167 82.6275 3.18901C79.5203 4.94923 77.0289 7.41759 75.2166 10.5189C73.4044 13.6232 72.4852 17.2506 72.4852 21.3057C72.4852 25.3609 73.4015 28.864 75.2108 32.0116C77.0202 35.165 79.5117 37.6709 82.6188 39.4543C85.7201 41.2376 89.2984 42.1423 93.2524 42.1423C97.2064 42.1423 100.802 41.2405 103.95 39.4572C107.109 37.6709 109.618 35.1737 111.404 32.0405C113.187 28.9131 114.089 25.3002 114.089 21.3029C114.089 17.3055 113.184 13.6376 111.398 10.5565V10.5594ZM108.181 21.3115C108.181 24.2192 107.537 26.8234 106.265 29.0548C104.999 31.2775 103.218 33.0464 100.978 34.3152C98.7267 35.5899 96.1283 36.2344 93.2611 36.2344C90.3938 36.2344 87.8243 35.5899 85.6132 34.321C83.4079 33.0521 81.6332 31.2688 80.3441 29.023C79.0521 26.7743 78.3989 24.1816 78.3989 21.3144C78.3989 18.4472 79.0521 15.762 80.3412 13.5538C81.6303 11.3456 83.3992 9.59403 85.6074 8.34251C87.8214 7.08809 90.3967 6.45511 93.2611 6.45511C96.1254 6.45511 98.773 7.09966 101.004 8.37141C103.233 9.64317 105.005 11.3947 106.273 13.5827C107.542 15.7707 108.187 18.372 108.187 21.3144L108.181 21.3115Z" fill="url(#paint1_linear_1_19751)"/>
<path d="M68.8655 10.5594C67.0793 7.47829 64.5878 5.01282 61.4576 3.22658C58.3331 1.44324 54.7201 0.541443 50.7199 0.541443C46.7196 0.541443 43.1963 1.43167 40.0949 3.18901C36.9878 4.94923 34.4963 7.41759 32.6841 10.5189C30.8718 13.6232 29.9527 17.2535 29.9527 21.3057C29.9527 25.358 30.8689 28.864 32.6783 32.0116C34.4877 35.165 36.9791 37.6709 40.0863 39.4543C43.1876 41.2376 46.7659 42.1423 50.7199 42.1423C54.6739 42.1423 58.2695 41.2405 61.4171 39.4572C64.5791 37.668 67.0851 35.1737 68.8713 32.0405C70.6547 28.9131 71.5564 25.3002 71.5564 21.3029C71.5564 17.3055 70.6518 13.6376 68.8655 10.5565V10.5594ZM65.6457 21.3115C65.6457 24.2192 65.0011 26.8234 63.7294 29.0548C62.4634 31.2775 60.6858 33.0464 58.4429 34.3152C56.1913 35.5899 53.5929 36.2344 50.7257 36.2344C47.8584 36.2344 45.2889 35.5899 43.0778 34.321C40.8725 33.0521 39.0978 31.2688 37.8087 29.023C36.5167 26.7743 35.8635 24.1816 35.8635 21.3144C35.8635 18.4472 36.5167 15.762 37.8058 13.5538C39.0949 11.3456 40.8667 9.59114 43.072 8.34251C45.286 7.08809 47.8613 6.45511 50.7257 6.45511C53.59 6.45511 56.2376 7.09966 58.4689 8.37141C60.6974 9.64317 62.4692 11.3947 63.738 13.5827C65.0069 15.7707 65.6515 18.372 65.6515 21.3144L65.6457 21.3115Z" fill="url(#paint2_linear_1_19751)"/>
<path d="M116.543 0.741037V33.4512C116.543 33.6824 116.442 35.4744 115.454 36.2028C114.624 36.8126 113.621 37.1306 112.459 37.1306C111.962 37.1306 111.543 37.0959 111.214 37.0265L109.488 36.6624V42.3824L110.592 42.6425C111.277 42.8044 112.112 42.8853 113.078 42.8853C115.803 42.8853 118.124 42.0673 119.977 40.4487C121.786 38.8677 122.743 36.7086 122.833 34.0292C122.841 33.8385 122.847 33.6448 122.847 33.4483V7.02756H128.001V0.738148H116.543V0.741037Z" fill="url(#paint3_linear_1_19751)"/>
<path d="M27.6202 28.8728H22.0476C22.0476 33.4222 18.3595 37.1074 13.8101 37.1074C9.26069 37.1074 5.5726 33.4193 5.5726 28.8699C5.5726 26.731 6.38768 24.7829 7.72302 23.3204C7.7288 23.3262 7.73169 23.3291 7.73747 23.3348C7.89355 23.1556 8.0583 22.9851 8.23751 22.8233C9.5584 21.6295 12.151 20.9185 15.1772 20.9185H27.5826V0.954842H16.16V7.24714H21.2701V15.0424C21.2701 15.0424 13.8361 15.0627 13.8101 15.0627C6.18247 15.0627 0 21.2451 0 28.8728C0 36.5004 6.18247 42.6829 13.8101 42.6829C16.5646 42.6829 19.1284 41.8736 21.2817 40.4833V41.4516H22.7268C23.8194 41.4516 24.1402 41.4747 25.4582 41.5845L27.5942 41.758V29.6821C27.6087 29.4133 27.6202 29.1445 27.6202 28.8728Z" fill="url(#paint4_linear_1_19751)"/>
<defs>
<linearGradient id="paint0_linear_1_19751" x1="134.584" y1="-2.72167" x2="18.7295" y2="56.5103" gradientUnits="userSpaceOnUse">
<stop stop-color="#FF1877"/>
<stop offset="0.37" stop-color="#FF2D46"/>
<stop offset="0.79" stop-color="#FF4313"/>
<stop offset="1" stop-color="#FF4C00"/>
</linearGradient>
<linearGradient id="paint1_linear_1_19751" x1="136.46" y1="-0.747654" x2="20.6063" y2="58.4844" gradientUnits="userSpaceOnUse">
<stop stop-color="#FF1877"/>
<stop offset="0.37" stop-color="#FF2D46"/>
<stop offset="0.79" stop-color="#FF4313"/>
<stop offset="1" stop-color="#FF4C00"/>
</linearGradient>
<linearGradient id="paint2_linear_1_19751" x1="127.647" y1="-17.9886" x2="11.7926" y2="41.2463" gradientUnits="userSpaceOnUse">
<stop stop-color="#FF1877"/>
<stop offset="0.37" stop-color="#FF2D46"/>
<stop offset="0.79" stop-color="#FF4313"/>
<stop offset="1" stop-color="#FF4C00"/>
</linearGradient>
<linearGradient id="paint3_linear_1_19751" x1="140.718" y1="9.27625" x2="24.8642" y2="68.5082" gradientUnits="userSpaceOnUse">
<stop stop-color="#FF1877"/>
<stop offset="0.37" stop-color="#FF2D46"/>
<stop offset="0.79" stop-color="#FF4313"/>
<stop offset="1" stop-color="#FF4C00"/>
</linearGradient>
<linearGradient id="paint4_linear_1_19751" x1="120.987" y1="-29.3158" x2="5.13326" y2="29.9191" gradientUnits="userSpaceOnUse">
<stop stop-color="#FF1877"/>
<stop offset="0.37" stop-color="#FF2D46"/>
<stop offset="0.79" stop-color="#FF4313"/>
<stop offset="1" stop-color="#FF4C00"/>
</linearGradient>
</defs>
</svg>
