<svg width="18" height="15" viewBox="0 0 18 15" fill="none" xmlns="http://www.w3.org/2000/svg">
                  <path
                    d="M5.76799 14.5C3.74611 14.5 1.86138 13.9119 0.275024 12.8973C1.6219 12.9844 3.99882 12.7757 5.47726 11.3655C3.2532 11.2634 2.25019 9.55768 2.11936 8.82873C2.30833 8.90162 3.20959 8.9891 3.71836 8.78499C1.15996 8.14351 0.767479 5.89833 0.854697 5.21311C1.3344 5.54843 2.14843 5.66506 2.46823 5.6359C0.08427 3.93015 0.941916 1.36422 1.36347 0.810218C3.07429 3.18042 5.63828 4.51161 8.81026 4.58565C8.75046 4.32335 8.71887 4.05026 8.71887 3.76978C8.71887 1.75682 10.3459 0.125 12.353 0.125C13.4016 0.125 14.3465 0.570471 15.0098 1.28302C15.7106 1.11882 16.7652 0.734417 17.2808 0.402003C17.0209 1.33507 16.2119 2.11343 15.7225 2.40192C15.7185 2.39207 15.7265 2.41174 15.7225 2.40192C16.1524 2.3369 17.3155 2.11336 17.775 1.8016C17.5478 2.32578 16.69 3.19733 15.9861 3.68526C16.1171 9.46129 11.6978 14.5 5.76799 14.5Z"
                    fill="#47ACDF" />
                </svg>